<?xml version="1.0" encoding="utf-8"?>
<!-- Generator: Adobe Illustrator 21.0.0, SVG Export Plug-In . SVG Version: 6.00 Build 0)  -->
<svg version="1.1" id="Layer_1" xmlns="http://www.w3.org/2000/svg" xmlns:xlink="http://www.w3.org/1999/xlink" viewBox="0 0 210 210">
<g>
	<g>
<path xmlns="http://www.w3.org/2000/svg" fill="#FFFFFF" d="M 83.2074 110.588 H 47.8936 V 119.47 H 83.2074 V 110.588 Z" />
<path xmlns="http://www.w3.org/2000/svg" fill="#FFFFFF" d="M 162.885 39.9713 C 159.963 39.9713 157.111 40.2778 154.326 40.7796 C 145.789 17.0145 123.236 0 96.6715 0 C 62.7835 0 35.3138 27.638 35.3138 61.7335 C 35.3138 63.6566 35.4286 65.5574 35.6007 67.4361 C 15.3262 71.3533 0 89.2693 0 110.809 C 0 135.139 19.5462 154.867 43.7008 154.991 V 155 H 83.2082 V 146.117 H 43.7141 L 43.7008 146.104 C 24.4548 145.984 8.82845 130.2 8.82845 110.809 C 8.82845 93.9149 20.7866 79.3387 37.2649 76.1587 L 45.1222 74.6398 L 44.3895 66.6233 C 44.2217 64.7847 44.1423 63.1858 44.1423 61.7335 C 44.1423 32.59 67.7054 8.88252 96.6715 8.88252 C 118.685 8.88252 138.518 22.9125 146.023 43.7953 L 148.552 50.8347 L 155.88 49.5156 C 158.378 49.067 160.669 48.8494 162.885 48.8494 C 184.546 48.8494 202.172 66.5834 202.172 88.3766 C 202.172 110.419 184.546 128.348 162.885 128.348 H 48.1151 V 137.231 H 162.885 C 189.459 137.231 211 115.113 211 88.3766 C 211 61.6403 189.459 39.9713 162.885 39.9713 Z" />
	</g>
</g>
</svg>
