<svg viewBox="0 0 18 18" xmlns="http://www.w3.org/2000/svg" xmlns:xlink="http://www.w3.org/1999/xlink">
  <g>
    <title></title>
    <path fill="#ffffff" d="M17.956 10.352a4.045 4.045 0 00-3.51-3.888A5.1 5.1 0 009.2 1.59 5.228 5.228 0 004.2 5 4.827 4.827 0 00-.044 9.641a4.9 4.9 0 005.068 4.706c.151 0 .3-.007.447-.019h8.207a.813.813 0 00.222-.028 4.092 4.092 0 004.056-3.948z"></path>
    <path fill="#ffffff" d="M11.554 7.876a2.533 2.533 0 10-3.769 2.2v3.279h2.431V10.1a2.525 2.525 0 001.338-2.224zM9.466 12.6h-.931v-2.24a2.6 2.6 0 00.486.049 2.514 2.514 0 00.445-.045zm0-3.006a1.771 1.771 0 01-.445.063 1.739 1.739 0 01-.486-.076zm.75-.4l-2.431-.037a1.785 1.785 0 112.431.034z"></path>
    <rect stroke="#ffffff" fill="#ffc107"  width="12.211" height="3.338" x="2.908" y="12.602" rx=".408" stroke-width="1.1"></rect>
    <rect fill="#ffc107" width=".912" height=".912" x="13.269" y="13.186" rx=".204"></rect>
    <rect fill="#ffc107" width=".912" height=".912" x="13.269" y="14.444" rx=".204"></rect>
    <path fill="#ffc107" d="M10.8 7.876a1.783 1.783 0 10-2.265 1.707V12.6h.931v-3A1.779 1.779 0 0010.8 7.876z"></path>
  </g>
</svg>