<svg width="80" height="80" viewBox="0 0 80 80" fill="none" xmlns="http://www.w3.org/2000/svg">
<path d="M66.4559 66.4401L13.7578 13.7419" stroke="#FFFFFF"/>
<path d="M40.3125 76.25V3.75" stroke="#FFFFFF"/>
<path d="M66.4564 13.9402L13.8701 66.5264" stroke="#FFFFFF"/>
<path fill-rule="evenodd" clip-rule="evenodd" d="M47.5 40C47.5 44.1419 44.1419 47.5 40 47.5C35.8581 47.5 32.5 44.1419 32.5 40C32.5 35.8581 35.8581 32.5 40 32.5C44.1419 32.5 47.5 35.8581 47.5 40" fill="#FFFFFF"/>
<path fill-rule="evenodd" clip-rule="evenodd" d="M70 66.25C70 68.3212 68.3206 70 66.25 70C64.1794 70 62.5 68.3212 62.5 66.25C62.5 64.1794 64.1794 62.5 66.25 62.5C68.3206 62.5 70 64.1794 70 66.25" fill="#FFFFFF"/>
<path fill-rule="evenodd" clip-rule="evenodd" d="M17.5 66.25C17.5 68.3212 15.8206 70 13.75 70C11.6794 70 10 68.3212 10 66.25C10 64.1794 11.6794 62.5 13.75 62.5C15.8206 62.5 17.5 64.1794 17.5 66.25" fill="#FFFFFF"/>
<path fill-rule="evenodd" clip-rule="evenodd" d="M17.5 13.75C17.5 15.8212 15.8206 17.5 13.75 17.5C11.6794 17.5 10 15.8212 10 13.75C10 11.6794 11.6794 10 13.75 10C15.8206 10 17.5 11.6794 17.5 13.75" fill="#FFFFFF"/>
<path fill-rule="evenodd" clip-rule="evenodd" d="M70 13.75C70 15.8212 68.3206 17.5 66.25 17.5C64.1794 17.5 62.5 15.8212 62.5 13.75C62.5 11.6794 64.1794 10 66.25 10C68.3206 10 70 11.6794 70 13.75" fill="#FFFFFF"/>
<path d="M3.75 40.3125H76.25" stroke="#FFFFFF"/>
<path fill-rule="evenodd" clip-rule="evenodd" d="M80 40C80 42.0712 78.3206 43.75 76.25 43.75C74.1794 43.75 72.5 42.0712 72.5 40C72.5 37.9294 74.1794 36.25 76.25 36.25C78.3206 36.25 80 37.9294 80 40" fill="FFFFFF"/>
<path fill-rule="evenodd" clip-rule="evenodd" d="M7.5 40C7.5 42.0712 5.82062 43.75 3.75 43.75C1.67938 43.75 0 42.0712 0 40C0 37.9294 1.67938 36.25 3.75 36.25C5.82062 36.25 7.5 37.9294 7.5 40" fill="FFFFFF"/>
<path fill-rule="evenodd" clip-rule="evenodd" d="M40 0C42.0706 0 43.75 1.67938 43.75 3.75C43.75 5.82125 42.0706 7.5 40 7.5C37.9294 7.5 36.25 5.82125 36.25 3.75C36.25 1.67938 37.9294 0 40 0" fill="FFFFFF"/>
<path fill-rule="evenodd" clip-rule="evenodd" d="M40 72.5C42.0706 72.5 43.75 74.1794 43.75 76.25C43.75 78.3212 42.0706 80 40 80C37.9294 80 36.25 78.3212 36.25 76.25C36.25 74.1794 37.9294 72.5 40 72.5" fill="FFFFFF"/>
</svg>
