<svg viewBox="0 0 49 49" xmlns="http://www.w3.org/2000/svg">
  <path d="M31.261 8.88184L18.3687 20.0643L19.1884 20.9589L32.0807 9.70188L31.261 8.88184Z" fill="#FFFFFF"></path>
  <path d="M31.708 11.6403C33.025 11.6403 34.0927 10.5722 34.0927 9.25473C34.0927 7.9372 33.025 6.86914 31.708 6.86914C30.3909 6.86914 29.3232 7.9372 29.3232 9.25473C29.3232 10.5722 30.3909 11.6403 31.708 11.6403Z" fill="#FFFFFF"></path>
  <path d="M31.7086 10.3732C32.3262 10.3732 32.8268 9.87255 32.8268 9.25496C32.8268 8.63737 32.3262 8.13672 31.7086 8.13672C31.091 8.13672 30.5903 8.63737 30.5903 9.25496C30.5903 9.87255 31.091 10.3732 31.7086 10.3732Z" fill="#b817a2"></path>
  <path d="M11.2898 11.3422C12.3332 20.7355 19.8599 28.265 29.2497 29.3832C32.4542 29.756 35.5841 29.3832 38.416 28.4141C38.6395 28.3395 38.714 27.9668 38.565 27.8177L12.9293 1.87445C12.7803 1.72535 12.4077 1.7999 12.3332 2.02354C11.2898 4.93098 10.9172 8.06206 11.2898 11.3422Z" fill="#FFFFFF"></path>
  <path d="M38.5641 27.7431L12.9284 1.87445C12.7794 1.72535 12.4068 1.7999 12.3323 2.02354C12.1832 2.32174 12.1087 2.69449 12.0342 2.99269L37.4463 28.6377C37.7444 28.5632 38.117 28.4141 38.4151 28.3395C38.6386 28.265 38.7131 27.9668 38.5641 27.7431Z" fill="#FFFFFF"></path>
  <path d="M15.0151 28.1159C16.2087 28.1159 17.1763 27.1479 17.1763 25.9539C17.1763 24.7599 16.2087 23.792 15.0151 23.792C13.8216 23.792 12.854 24.7599 12.854 25.9539C12.854 27.1479 13.8216 28.1159 15.0151 28.1159Z" fill="#FFFFFF"></path>
  <path d="M13.4501 27.5195C14.2698 28.3396 15.6858 28.3396 16.58 27.5195C17.1017 26.9977 17.2507 26.4013 17.1762 25.7303C17.1017 26.1031 16.8781 26.4758 16.58 26.774C15.7603 27.5941 14.3444 27.5941 13.4501 26.774C13.0775 26.4013 12.8539 25.954 12.8539 25.4321C12.7049 26.1776 12.9284 26.9231 13.4501 27.5195Z" fill="#FFFFFF"></path>
  <path d="M18.5928 28.7124H11.5132V45.0388H18.5928V28.7124Z" fill="#FFFFFF"></path>
  <path d="M21.126 34.229H17.3999V45.0387H21.126V34.229Z" fill="#FFFFFF"></path>
  <path d="M18.6672 34.229H17.3999V45.0387H18.6672V34.229Z" fill="#b817a2"></path>
  <path d="M23.6596 46.1567H9.05322V47.7968H23.6596V46.1567Z" fill="#FFFFFF"></path>
</svg>