<svg version="1.1" id="Layer_1" xmlns="http://www.w3.org/2000/svg" xmlns:xlink="http://www.w3.org/1999/xlink" x="0px" y="0px"
	 width="50px" height="50px" viewBox="0 0 50 50" enable-background="new 0 0 50 50" xml:space="preserve">
<path fill="#FFFFFF" d="M36.5,1C31.337,1,26.906,4.131,25,8.598C23.094,4.131,18.663,1,13.5,1C5,1,1,9.096,1,16c0,21,24,33,24,33
	s24-12,24-33C49,9.096,45,1,36.5,1z"/>
<path opacity="0.25" fill="#FFFFFF" d="M25,28c-10.713,0-19.91-3.988-23.891-9.683C2.774,37.878,25,49,25,49
	s22.226-11.122,23.891-30.683C44.91,24.012,35.713,28,25,28z"/>
<circle fill="#c107ff" cx="28" cy="37" r="3.9"/>
<g>
	<path fill="#c107ff" d="M4.645,5.101c0,0-1.406,5.042,4.434,10.082l1.846-2.364c-0.032-0.025-3.181-2.564-3.413-6.265
		C7.323,3.538,8.83,1.91,8.83,1.91C7.158,2.668,5.766,3.711,4.645,5.101z"/>
	<path fill="#c107ff" d="M47.796,9.421c0.892,3.894,0.563,7.733-1.007,11.266c-2.821,6.349-9.488,11.5-19.28,14.896l0.982,2.834
		c8.436-2.924,14.857-7.143,18.686-12.336C48.368,22.999,49.1,19.638,49.1,16C49.1,13.828,48.603,11.54,47.796,9.421z"/>
</g>
<path fill="#c107ff" d="M9.176,13.176c-5.621,5.621,1.344,15.486,7,21.143l1.061,1.061c0.586,0.586,1.536,0.586,2.121,0l2.121-2.121
	c0.586-0.586,0.586-1.536,0-2.121c-0.586-0.586-1.536-0.586-2.121,0l-1.131,1.131c-7.778-7.778-10.28-13.903-7.071-17.112
	s9.334-0.707,17.112,7.071l-1.131,1.131c-0.586,0.586-0.586,1.536,0,2.121c0.586,0.586,1.536,0.586,2.121,0l2.121-2.121
	c0.586-0.586,0.586-1.536,0-2.121l-1.061-1.061C24.662,14.52,14.797,7.555,9.176,13.176z"/>
</svg>
