<?xml version="1.0" encoding="utf-8"?>
<svg xmlns="http://www.w3.org/2000/svg" role="presentation" aria-hidden="true" viewBox="0 0 18 18" focusable="false" xmlns:xlink="http://www.w3.org/1999/xlink" xmlns:svg="http://www.w3.org/2000/svg">
  <g>
    <path fill="#FFFFFF" d="M 13.13 2.4 V 7 L 9.18 9.3 V 4.7 l 3.95 -2.3 Z" />
    <path fill="#FFFFFF" d="M 11.45 4.7 c 0.55 -0.32 1 -0.07 1 0.56 a 2.18 2.18 0 0 1 -1 1.72 c -0.55 0.32 -1 0.07 -1 -0.57 a 2.17 2.17 0 0 1 1 -1.71 Z" />
    <path fill="#FFFFFF" d="M 7.9 11 v 4.6 l -3.95 2.3 v -4.6 L 7.9 11 Z" />
    <path fill="#FFFFFF" d="M 5.92 13.53 c 0.55 -0.3 1 -0.06 1 0.57 a 2.2 2.2 0 0 1 -1 1.72 c -0.55 0.32 -1 0.06 -1 -0.57 a 2.2 2.2 0 0 1 1 -1.72 Z" />
    <path fill="#FFFFFF" d="M 3.95 13.3 v 4.6 L 0 15.6 V 11 l 3.95 2.3 Z" />
    <path fill="#FFFFFF" d="M 18 11 v 4.6 l -3.95 2.3 v -4.6 L 18 11 Z" />
    <path fill="#FFFFFF" d="M 11.5 6.2 a 4.17 4.17 0 0 1 2.37 2.61 l 0.2 -0.1 l 1 0.58 a 5.21 5.21 0 0 0 -3.15 -4.06 a 0.53 0.53 0 0 0 -0.41 1 Z" />
    <path fill="#FFFFFF" d="M 14.05 13.32 v 4.6 l -3.95 -2.3 V 11 l 3.95 2.3 Z" />
    <path fill="#FFFFFF" d="M 12.2 13.6 c -0.52 -0.3 -0.94 -0.05 -0.94 0.54 a 2.08 2.08 0 0 0 0.94 1.63 c 0.52 0.3 0.94 0.06 0.94 -0.54 a 2.08 2.08 0 0 0 -0.94 -1.63 Z" />
    <path fill="#FFFFFF" d="M 9.2 16.1 a 5.46 5.46 0 0 1 -3.18 -1 a 0.55 0.55 0 1 1 0.64 -0.89 a 4.36 4.36 0 0 0 4.81 0.18 a 0.55 0.55 0 1 1 0.58 0.94 a 5.54 5.54 0 0 1 -2.85 0.77 Z" />
    <path fill="#FFFFFF" d="M 13.13 2.4 L 9.2 4.7 L 5.24 2.4 L 9.2 0.1 l 3.94 2.3 Z" />
    <path fill="#FFFFFF" d="M 5.24 5.3 a 5.25 5.25 0 0 0 -2.36 4 L 4 8.7 v 0.05 a 4.2 4.2 0 0 1 1.24 -2.07 Z" />
    <path fill="#FFFFFF" d="M 18 11 l -3.95 2.3 L 10.1 11 l 3.95 -2.3 L 18 11 Z M 7.9 11 l -3.95 2.3 L 0 11 l 3.95 -2.3 L 7.9 11 Z" />
    <path fill="#FFFFFF" d="M 9.18 4.7 v 4.6 L 5.24 7 V 2.4 l 3.94 2.3 Z" />
  </g>
</svg>
