<svg xmlns="http://www.w3.org/2000/svg" id="Layer_1" enable-background="new 0 0 50 50" viewBox="0 0 50 50" x="0px" y="0px" width="100%" height="100%" xmlns:xml="http://www.w3.org/XML/1998/namespace" xml:space="preserve" xmlns:xlink="http://www.w3.org/1999/xlink" version="1.1">
<path fill="#ffffff" d="M 23.577 0.808 L 4.457 11.672 C 3.556 12.184 3 13.14 3 14.176 v 21.648 c 0 1.036 0.556 1.992 1.457 2.504 l 19.12 10.864 c 0.882 0.501 1.963 0.501 2.846 0 l 19.12 -10.864 C 46.444 37.816 47 36.86 47 35.824 V 14.176 c 0 -1.036 -0.556 -1.992 -1.457 -2.504 L 26.423 0.808 C 25.54 0.307 24.46 0.307 23.577 0.808 Z" />
<path opacity="0.4" fill="#ffffff" d="M 32.506 4.265 l -6.084 -3.457 c -0.882 -0.501 -1.963 -0.501 -2.846 0 L 4.457 11.672 C 3.556 12.184 3 13.14 3 14.176 v 21.648 c 0 1.036 0.556 1.992 1.457 2.504 l 12.969 7.369 L 32.506 4.265 Z" enable-background="new    " />
<circle fill="#6c757d" cx="25" cy="8" r="2.9" />
<circle fill="#6c757d" cx="25" cy="42" r="2.9" />
<path fill="#6c757d" d="M 35.021 30.645 c 0 4.243 -4.208 7.322 -10.007 7.322 c -5.098 0 -8.294 -1.921 -9.76 -5.871 l 4.977 -0.937 c 0.644 1.391 2.066 2.979 5.198 2.979 c 3.134 0 4.302 -1.882 4.302 -3.068 c 0 -2.467 -2.975 -3.322 -4.255 -3.575 c -5.433 -1.078 -9.279 -2.321 -9.279 -8.542 c 0 -5.108 4.749 -6.92 8.816 -6.92 c 4.449 0 7.342 1.471 8.838 4.495 l -4.3 1.365 c -0.902 -1.538 -2.442 -2.351 -4.462 -2.351 c -2.95 0 -3.73 2.033 -3.73 3.108 c 0 1.481 1.477 2.779 3.762 3.31 c 2.866 0.665 4.879 1.176 6.053 1.67 C 33.034 24.413 35.021 26.667 35.021 30.645" />
<circle opacity="0.2" fill="#ffffff" cx="25" cy="8" r="2.9" />
<circle opacity="0.2" fill="#ffffff" cx="25" cy="42" r="2.9" /><path opacity="0.2" fill="#ffffff" d="M 35.021 30.645 c 0 4.243 -4.208 7.322 -10.007 7.322 c -5.098 0 -8.294 -1.921 -9.76 -5.871 l 4.977 -0.937 c 0.644 1.391 2.066 2.979 5.198 2.979 c 3.134 0 4.302 -1.882 4.302 -3.068 c 0 -2.467 -2.975 -3.322 -4.255 -3.575 c -5.433 -1.078 -9.279 -2.321 -9.279 -8.542 c 0 -5.108 4.749 -6.92 8.816 -6.92 c 4.449 0 7.342 1.471 8.838 4.495 l -4.3 1.365 c -0.902 -1.538 -2.442 -2.351 -4.462 -2.351 c -2.95 0 -3.73 2.033 -3.73 3.108 c 0 1.481 1.477 2.779 3.762 3.31 c 2.866 0.665 4.879 1.176 6.053 1.67 C 33.034 24.413 35.021 26.667 35.021 30.645" />

</svg>