<?xml version="1.0" encoding="utf-8"?>
<!-- Generator: Adobe Illustrator 17.1.0, SVG Export Plug-In . SVG Version: 6.00 Build 0)  -->
<!DOCTYPE svg PUBLIC "-//W3C//DTD SVG 1.1//EN" "http://www.w3.org/Graphics/SVG/1.1/DTD/svg11.dtd">
<svg xmlns="http://www.w3.org/2000/svg" role="presentation" aria-hidden="true" viewBox="0 0 50 50" focusable="false" xmlns:xlink="http://www.w3.org/1999/xlink" xmlns:svg="http://www.w3.org/2000/svg">
    <path fill="#FFFFFF" d="M 0.001 11.453 v 26.182 c 0 3.705 6.222 6.765 14 6.765 s 14 -3.028 14 -6.765 V 11.453 h -28 Z" />
    <path fill="#FFFFFF" d="M 14.001 44.4 c 7.778 0 14 -3.028 14 -6.765 V 11.453 h -14 V 44.4 Z" />
    <path fill="#FFFFFF" d="M 28 24 h 8 v 3 h -8 Z" />
    <path fill="#FFFFFF" d="M 28 11.406 c 0 3.871 -6.268 7.006 -14 7.006 S 0 15.277 0 11.406 C 0 7.536 6.269 4.4 14 4.4 s 14 3.136 14 7.006" />
    <path fill="#a2b817" d="M 25.138 10.909 c 0 2.461 -4.986 4.453 -11.137 4.453 S 2.863 13.369 2.863 10.909 S 7.85 6.456 14.001 6.456 s 11.137 1.993 11.137 4.453" />
    <path fill="none" stroke="#FFFFFF" stroke-miterlimit="10" stroke-width="3" d="M 43 8 l -8.5 17.5 m 0 0 L 43 43" />
    <path fill="#a2b817" d="M 22.805 13.63 c 1.458 -0.753 2.334 -1.695 2.334 -2.719 c 0 -2.461 -4.986 -4.454 -11.138 -4.454 c -6.151 0 -11.137 1.993 -11.137 4.454 c 0 1.024 0.876 1.966 2.334 2.719 c 2.036 -1.052 5.218 -1.731 8.803 -1.731 c 3.586 0 6.766 0.679 8.804 1.731" />
    <path fill="#a2b817" d="M 42.994 13.646 a 5.624 5.624 0 0 1 -3.009 -0.874 c -1.274 -0.805 -2.16 -2.059 -2.492 -3.53 s -0.071 -2.982 0.734 -4.257 a 5.622 5.622 0 0 1 4.778 -2.63 c 1.064 0 2.104 0.302 3.009 0.874 c 1.274 0.805 2.16 2.059 2.492 3.53 s 0.071 2.982 -0.734 4.257 a 5.625 5.625 0 0 1 -4.778 2.63 Z" />
    <path fill="#FFFFFF" d="M 43.007 3.609 a 4.37 4.37 0 0 1 2.338 0.68 a 4.361 4.361 0 0 1 1.938 2.745 a 4.363 4.363 0 0 1 -0.571 3.311 a 4.375 4.375 0 0 1 -3.718 2.046 a 4.367 4.367 0 0 1 -2.338 -0.68 a 4.361 4.361 0 0 1 -1.938 -2.745 a 4.363 4.363 0 0 1 0.571 -3.311 a 4.373 4.373 0 0 1 3.718 -2.046 m 0 -2.509 a 6.9 6.9 0 1 0 3.678 1.067 A 6.873 6.873 0 0 0 43.007 1.1 Z" />
    <path fill="#a2b817" d="M 42.993 48.646 a 5.628 5.628 0 0 1 -3.008 -0.873 a 5.614 5.614 0 0 1 -2.492 -3.53 a 5.608 5.608 0 0 1 0.734 -4.257 a 5.624 5.624 0 0 1 4.779 -2.631 c 1.063 0 2.104 0.302 3.008 0.873 a 5.614 5.614 0 0 1 2.492 3.53 a 5.608 5.608 0 0 1 -0.734 4.257 a 5.624 5.624 0 0 1 -4.779 2.631 Z" />
    <path fill="#FFFFFF" d="M 43.007 38.609 a 4.37 4.37 0 0 1 2.338 0.68 a 4.361 4.361 0 0 1 1.938 2.745 a 4.363 4.363 0 0 1 -0.571 3.311 a 4.375 4.375 0 0 1 -3.718 2.046 a 4.367 4.367 0 0 1 -2.338 -0.68 a 4.361 4.361 0 0 1 -1.938 -2.745 a 4.363 4.363 0 0 1 0.571 -3.311 a 4.373 4.373 0 0 1 3.718 -2.046 m 0 -2.509 a 6.9 6.9 0 1 0 3.678 1.067 a 6.873 6.873 0 0 0 -3.678 -1.067 Z" />
</svg>
