<svg width="185" height="118" viewBox="0 0 185 118" fill="none" xmlns="http://www.w3.org/2000/svg">
<path fill-rule="evenodd" clip-rule="evenodd" d="M97.3404 68.515C97.3404 80.4699 97.3711 116.889 97.3711 116.889C97.3711 116.889 63.666 117.135 48.7902 117.135C21.9769 117.135 0.241211 95.3672 0.241211 68.515C0.241211 41.6628 21.9769 19.8945 48.7902 19.8945C75.6036 19.8945 97.3404 41.6628 97.3404 68.515Z" fill="#FFFFFF"/>
<path fill-rule="evenodd" clip-rule="evenodd" d="M83.5201 77.5009C83.5201 75.7988 82.1425 74.418 80.4416 74.418H23.1526H18.7767C16.4094 74.418 15.224 77.2847 16.8977 78.962L18.5172 80.5826L31.9433 94.0306C33.4342 95.5224 35.8498 95.5224 37.3407 94.0306C38.8304 92.5375 38.8304 90.1185 37.3407 88.6254L33.4083 84.6885C31.8961 83.1742 32.9671 80.5826 35.1067 80.5826H80.4416C82.1425 80.5826 83.5201 79.203 83.5201 77.5009Z" fill="#ff4507"/>
<path fill-rule="evenodd" clip-rule="evenodd" d="M16.1143 60.7277C16.1143 62.4298 17.4919 63.8094 19.1927 63.8094H76.4818H80.8577C83.2249 63.8094 84.4103 60.9426 82.7366 59.2665L81.1172 57.6447L67.691 44.198C66.2002 42.7061 63.7846 42.7061 62.2937 44.198C60.804 45.691 60.804 48.1101 62.2937 49.6032L66.2261 53.5401C67.7382 55.0544 66.6672 57.6447 64.5276 57.6447H19.1927C17.4919 57.6447 16.1143 59.0256 16.1143 60.7277Z" fill="#ff4507"/>
<path fill-rule="evenodd" clip-rule="evenodd" d="M139.658 27.2974C129.87 11.0772 112.098 0.231445 91.7926 0.231445C79.1744 0.231445 67.5364 4.42233 58.1807 11.4859C78.2709 14.7803 94.8628 28.4573 102.295 46.8391C105.003 53.5342 106.507 60.847 106.507 68.5153C106.507 75.6864 106.529 113.912 106.53 116.204C108.528 115.658 129.221 117.231 139.336 117.231C164.137 117.231 184.241 97.0967 184.241 72.2597C184.241 47.5313 164.309 27.471 139.658 27.2974Z" fill="#FFFFFF"/>
</svg>
