<?xml version="1.0" encoding="UTF-8" standalone="no"?>
<!DOCTYPE svg PUBLIC "-//W3C//DTD SVG 1.1//EN" "http://www.w3.org/Graphics/SVG/1.1/DTD/svg11.dtd">
<!-- Generated by Microsoft Visio, SVG Export Backup.svg Layer_1 -->
<svg xmlns="http://www.w3.org/2000/svg" xmlns:xlink="http://www.w3.org/1999/xlink" xmlns:ev="http://www.w3.org/2001/xml-events"
		xmlns:v="http://schemas.microsoft.com/visio/2003/SVGExtensions/" width="0.520833in" height="0.520833in"
		viewBox="0 0 50 50" xml:space="preserve" color-interpolation-filters="sRGB" class="st2">
	<v:documentProperties v:langID="1033" v:viewMarkup="false"/>

	<style type="text/css">
	<![CDATA[
		.st1 {fill:#FFFFFF;stroke:none;stroke-linecap:butt;stroke-width:0.75}
		.st2 {fill:none;fill-rule:evenodd;font-size:12px;overflow:visible;stroke-linecap:square;stroke-miterlimit:3}
	]]>
	</style>

<g xmlns="http://www.w3.org/2000/svg">
  <path fill="#ffffff" d="M 23 15 h 3 v 28 h -3 Z" />
<path fill="#ffffff" d="M 43.333 1 H 5.667 C 4.746 1 4 1.746 4 2.667 v 10.667 C 4 14.254 4.746 15 5.667 15 h 37.667 c 0.92 0 1.666 -0.746 1.666 -1.667 V 2.667 C 45 1.75 44.25 1 43.333 1 Z" />
  <path fill="#ffffff" d="M 38 3 h 3 v 3 h -3 Z m 0 6 h 3 v 3 h -3 Z" />
  <path fill="#ffffff" d="M 43.333 20 H 5.667 C 4.746 20 4 20.746 4 21.667 v 10.667 C 4 33.254 4.746 34 5.667 34 h 37.667 c 0.92 0 1.666 -0.746 1.666 -1.667 V 21.667 C 45 20.75 44.25 20 43.333 20 Z" />
  <path fill="#ffffff" d="M 38 22 h 3 v 3 h -3 Z m 0 6 h 3 v 3 h -3 Z" />
  <circle fill="#ffffff" cx="24.5" cy="45.514" r="4.4" />
  <circle fill="#ffffff" cx="24.5" cy="45.5" r="4.4" />
</g>
</svg>
