<svg xmlns="http://www.w3.org/2000/svg" viewBox="0 0 18 18">
  <g>
    <path fill="#ffffff" d="M18 9.5a4.094 4.094 0 0 0-3.51-3.961A5.139 5.139 0 0 0 9.24.569a5.27 5.27 0 0 0-5.024 3.475A4.857 4.857 0 0 0 0 8.773a4.937 4.937 0 0 0 5.068 4.8c.151 0 .3-.007.447-.02h8.207a.781.781 0 0 0 .217-.033A4.13 4.13 0 0 0 18 9.5z"></path>
    <rect width="9" height="9" x="7.35" y="7.267" fill="#ffffff" rx=".6"></rect>
    <rect width="9.871" height="9.871" x="6.914" y="7.193" fill="#ffffff" rx=".6"></rect>
    <rect width="7.266" height="1.696" x="8.393" y="8.538" rx=".3" fill="#a2b817"></rect>
    <rect width="7.266" height="1.696" x="8.393" y="11.279" rx=".3" fill="#a2b817"></rect>
    <rect width="7.266" height="1.696" x="8.393" y="14.02" rx=".3" fill="#a2b817"></rect>
  </g>
</svg>