<?xml version="1.0" encoding="utf-8"?>
<!-- Generator: Adobe Illustrator 17.0.1, SVG Export Plug-In . SVG Version: 6.00 Build 0)  -->
<!DOCTYPE svg PUBLIC "-//W3C//DTD SVG 1.1//EN" "http://www.w3.org/Graphics/SVG/1.1/DTD/svg11.dtd">
<svg version="1.1" id="Layer_1" xmlns="http://www.w3.org/2000/svg" xmlns:xlink="http://www.w3.org/1999/xlink" x="0px" y="0px"
	 viewBox="0 0 18 18" xml:space="preserve">
  <path fill="#FFFFFF" d="M5.459 3.98l.464-.862 5.445 2.929-.464.863z"></path>
  <path d="M7.081 4.2V1.5H.33v2.7c0 .716 1.511 1.3 3.376 1.3s3.376-.58 3.376-1.3z" fill="#FFFFFF"></path>
  <ellipse cx="3.707" cy="1.546" rx="3.376" ry="1.296" fill="#FFFFFF"></ellipse>
  <path d="M16.115 8.616v-2.7h-6.75v2.7c0 .716 1.511 1.3 3.376 1.3s3.376-.58 3.376-1.3z" fill="#FFFFFF"></path>
  <ellipse cx="12.741" cy="5.96" rx="3.376" ry="1.296" fill="#FFFFFF"></ellipse>
  <path fill="#FFFFFF" d="M3.22 4.168h.98v7.962h-.98z"></path>
  <circle cx="3.75" cy="3.337" r="1.157" fill="#dc3545"></circle>
  <path d="M7.081 12.824v-2.7H.33v2.7c0 .716 1.511 1.3 3.376 1.3s3.376-.58 3.376-1.3z" fill="#FFFFFF"></path>
  <ellipse cx="3.707" cy="10.167" rx="3.376" ry="1.296" fill="#FFFFFF"></ellipse>
  <path fill="#FFFFFF" d="M3.99 11.36l8.745-4.291.432.88-8.745 4.29z"></path>
  <circle cx="3.701" cy="11.939" r="1.157" fill="#dc3545"></circle>
  <circle cx="12.743" cy="7.548" r="1.157" fill="#dc3545"></circle>
  <path d="M17.166 15.5a.255.255 0 0 0-.1-.185A17 17 0 0 0 15.563 14a3.563 3.563 0 0 0-2.638-.706 5.515 5.515 0 0 0-3.339 2.066.224.224 0 0 0-.058.14.26.26 0 0 0 .1.186 17.319 17.319 0 0 0 1.507 1.315 3.568 3.568 0 0 0 2.637.706 5.517 5.517 0 0 0 3.339-2.066.229.229 0 0 0 .059-.141z" fill="#FFFFFF"></path>
  <circle cx="13.381" cy="15.501" r="1.846" fill="#dc3545"></circle>
  <path d="M13.389 14.478a.875.875 0 0 0-.144.029.537.537 0 0 1 .1.292.559.559 0 0 1-.559.558.548.548 0 0 1-.368-.145.985.985 0 0 0-.062.3 1.038 1.038 0 1 0 1.038-1.037zm4.14-1.006a6.582 6.582 0 0 0-1.929-1.231l.437-.776a.458.458 0 0 0 .044-.34.441.441 0 0 0-.806-.106l-.535.952a5.762 5.762 0 0 0-.914-.143v-.975a.442.442 0 0 0-.883 0v.974a5.879 5.879 0 0 0-.934.144l-.536-.952a.442.442 0 0 0-.6-.158.45.45 0 0 0-.159.6l.437.776a6.582 6.582 0 0 0-1.931 1.231c-.422.382.2 1 .624.624a5.183 5.183 0 0 1 7.067 0c.415.384 1.04-.238.618-.62z" fill="#FFFFFF"></path>
</svg>
