<svg width="54" height="54" viewBox="0 0 54 54" fill="none" xmlns="http://www.w3.org/2000/svg">
    <path d="M50.625 16.02V42.6713H30.24C29.8532 43.1547 29.3708 43.553 28.8229 43.8414C28.2751 44.1299 27.6737 44.3022 27.0562 44.3475C25.8525 44.3475 25.1775 43.9763 23.8725 42.6713H3.375V16.02H7.3125V37.125L23.8612 38.25C24.6992 38.367 25.4663 38.7836 26.0206 39.4228C26.575 40.0619 26.8789 40.8802 26.8762 41.7263H27.0675C27.0672 40.8809 27.372 40.0638 27.9259 39.4252C28.4798 38.7865 29.2456 38.3692 30.0825 38.25L46.6425 37.125V16.02H50.625Z" fill="white"></path>
    <path d="M27.0001 41.8051C27.0004 40.9597 26.6956 40.1426 26.1417 39.504C25.5878 38.8653 24.822 38.4481 23.9851 38.3288L7.39136 37.1251V9.65259L23.4564 10.7776C23.9216 10.7746 24.3828 10.8639 24.8134 11.0402C25.244 11.2165 25.6353 11.4764 25.9648 11.8049C26.2943 12.1334 26.5555 12.5239 26.7332 12.9539C26.9109 13.3839 27.0016 13.8448 27.0001 14.3101V41.8051Z" fill="#0065B3"></path>
    <path d="M27 41.8052C26.9997 40.9598 27.3045 40.1427 27.8584 39.5041C28.4123 38.8654 29.1781 38.4482 30.015 38.3289L46.575 37.1252V9.87769L30.51 10.7889C29.5781 10.7919 28.6853 11.1642 28.0274 11.8243C27.3694 12.4843 27 13.3782 27 14.3102V41.8052Z" fill="#0065B3"></path>
    <path d="M26.7525 41.8051C26.7552 40.9591 26.4512 40.1407 25.8969 39.5016C25.3425 38.8624 24.5754 38.4458 23.7375 38.3288L7.18872 37.1251V9.65259L23.2425 10.7776C24.1744 10.7806 25.0672 11.1529 25.7251 11.8129C26.383 12.4729 26.7525 13.3669 26.7525 14.2988V41.8051Z" stroke="white" stroke-width="1.5" stroke-miterlimit="10"></path>
    <path d="M27 42.2775C26.9973 41.4315 27.3013 40.6131 27.8556 39.974C28.41 39.3348 29.1771 38.9182 30.015 38.8012L46.5638 37.6762V10.125L30.51 11.25C29.5781 11.253 28.6853 11.6253 28.0274 12.2853C27.3695 12.9454 27 13.8393 27 14.7712V42.2775Z" stroke="white" stroke-width="1.5" stroke-miterlimit="10"></path>
    <path d="M26.9663 32.0063C31.067 32.0063 34.3913 28.682 34.3913 24.5813C34.3913 20.4805 31.067 17.1562 26.9663 17.1562C22.8655 17.1562 19.5413 20.4805 19.5413 24.5813C19.5413 28.682 22.8655 32.0063 26.9663 32.0063Z" fill="#4DB2FF"></path>
    <path d="M22.8826 24.8627L25.6163 27.5964L30.3863 21.5552" stroke="#0065B3" stroke-width="1.39" stroke-miterlimit="10"></path>
</svg>