<?xml version="1.0" encoding="utf-8"?>
<!-- Generator: Adobe Illustrator 21.0.0, SVG Export Plug-In . SVG Version: 6.00 Build 0)  -->
<svg version="1.1" id="Layer_1" xmlns="http://www.w3.org/2000/svg" xmlns:xlink="http://www.w3.org/1999/xlink" x="0px" y="0px"
	 width="50px" height="50px" viewBox="0 0 50 50" style="enable-background:new 0 0 50 50;" xml:space="preserve">
<path fill="#ffffff" d="M 0 18.5 v 25.123 c 0 2.418 5.373 4.377 12 4.377 V 48 c 0.008 0 0.015 -0.001 0.022 -0.001 h 0.143 v -0.003 C 18.715 47.964 24 46.02 24 43.623 V 18.5 H 0 Z" />
<path opacity="0.2" fill="#ffffff" d="M 0 18.5 v 25.058 c 0 2.454 5.618 4.441 12.342 4.441 L 12.343 18.5 H 0 Z" />
<path fill="#ffffff" d="M 24.004 18.459 c 0 2.408 -5.351 4.675 -11.952 4.675 S 0.1 20.866 0.1 18.459 c 0 -2.408 5.352 -4.359 11.952 -4.359 S 24.004 16.051 24.004 18.459" />
<path fill="#007bff" d="M 21.579 18.407 c 0 1.484 -4.265 2.685 -9.527 2.685 s -9.528 -1.202 -9.528 -2.685 c 0 -1.484 4.266 -2.685 9.528 -2.685 S 21.579 16.923 21.579 18.407" />
<path fill="#007bff" d="M 4.425 20.011 c 1.738 0.655 4.502 1.081 7.627 1.081 c 3.125 0 5.89 -0.426 7.627 -1.081 c -1.737 -0.655 -4.502 -1.081 -7.627 -1.081 C 8.928 18.93 6.163 19.356 4.425 20.011 Z" />
<circle fill="#ffffff" cx="12" cy="14" r="3.9" />
<circle fill="#ffffff" cx="20" cy="5" r="3.9" />
<circle fill="#ffffff" cx="31" cy="5" r="3.9" />
<circle fill="#ffffff" cx="38" cy="14" r="3.9" />
<path fill="#ffffff" d="M 49.643 44.204 l -7.623 -14.021 v -5.676 h 0.138 c 0.912 0 1.651 -0.785 1.651 -1.753 c 0 -0.968 -0.739 -1.753 -1.651 -1.753 h -8.316 c -0.912 0 -1.651 0.785 -1.651 1.753 c 0 0.968 0.739 1.753 1.651 1.753 h 0.138 v 5.676 l -7.623 14.021 C 25.521 45.742 26.205 47 27.877 47 h 20.247 C 49.795 47 50.479 45.742 49.643 44.204 Z" />
<polygon fill="#007bff" points="32.635,38.169 29.49,43.954 46.51,43.954 43.365,38.169" />
<path fill="#007bff" d="M 38.404 40.517 c 0.85 0 1.538 -0.731 1.538 -1.633 c 0 -0.256 -0.057 -0.498 -0.157 -0.714 h -2.763 c -0.099 0.216 -0.157 0.458 -0.157 0.714 C 36.866 39.786 37.555 40.517 38.404 40.517 Z" />
<ellipse fill="#007bff" cx="40.313" cy="41.777" rx="0.755" ry="0.801" />
<path opacity="0.25" fill="#ffffff" d="M 26.357 44.204 l 7.623 -14.022 v -5.676 h -0.138 c -0.912 0 -1.651 -0.785 -1.651 -1.753 c 0 -0.968 0.739 -1.753 1.651 -1.753 h 3.584 v 9.137 L 33.408 47 h -5.531 C 26.205 47 25.521 45.742 26.357 44.204 Z" />
</svg>
