<?xml version="1.0" encoding="utf-8"?>
<!-- Generator: Adobe Illustrator 17.1.0, SVG Export Plug-In . SVG Version: 6.00 Build 0)  -->
<!DOCTYPE svg PUBLIC "-//W3C//DTD SVG 1.1//EN" "http://www.w3.org/Graphics/SVG/1.1/DTD/svg11.dtd">
<svg version="1.1" id="Layer_1" xmlns="http://www.w3.org/2000/svg" xmlns:xlink="http://www.w3.org/1999/xlink" x="0px" y="0px"
	 height="100%" width="100%" viewBox="0 0 50 50" enable-background="new 0 0 50 50" xml:space="preserve">
<g xmlns="http://www.w3.org/2000/svg"><path fill="#ffffff" d="M 23 7.1 h 3 V 26 h -3 Z" />
<path fill="#ffffff" d="M 28.9 6.5 c 0 2.389 -2.011 4.4 -4.4 4.4 s -4.4 -2.011 -4.4 -4.4 s 2.011 -4.4 4.4 -4.4 s 4.4 2.011 4.4 4.4 Z m 6.125 40.496 a 1.38 1.38 0 0 1 -0.984 -0.398 a 1.481 1.481 0 0 1 0 -2.091 l 10.564 -10.566 a 0.856 0.856 0 0 0 0.001 -1.215 L 34.224 22.53 a 1.29 1.29 0 0 1 -0.469 -0.945 c -0.02 -0.41 0.149 -0.829 0.467 -1.149 a 1.425 1.425 0 0 1 1.156 -0.432 c 0.37 0 0.722 0.154 1 0.431 l 9.916 9.641 l 2.21 2.209 c 0.447 0.558 0.604 1.487 0 2.093 l -2.389 2.389 l -9.923 9.831 a 1.456 1.456 0 0 1 -1.014 0.402 h 0.003 l -0.156 -0.004 Z m -21.196 0 a 1.45 1.45 0 0 1 -1.012 -0.398 L 2.712 36.861 L 0.495 34.364 c -0.596 -0.594 -0.45 -1.499 -0.012 -2.052 l 2.229 -2.232 l 9.924 -9.648 a 1.417 1.417 0 0 1 1.151 -0.428 c 0.367 0 0.717 0.154 0.998 0.431 c 0.317 0.318 0.487 0.737 0.469 1.149 a 1.34 1.34 0 0 1 -0.49 0.965 L 4.589 32.726 a 0.853 0.853 0 0 0 -0.001 1.215 l 10.384 10.564 a 1.487 1.487 0 0 1 -0.001 2.091 c -0.261 0.26 -0.611 0.403 -0.987 0.404 l -0.155 -0.004 Z" /><path fill="#ffffff" d="M 23.9 25 h -4.8 a 5.996 5.996 0 1 0 -0.933 11.92 A 6.977 6.977 0 0 1 18.1 36 c 0 -0.448 0.046 -0.886 0.127 -1.311 A 3.8 3.8 0 0 1 15.3 31 c 0 -2.096 1.704 -3.8 3.8 -3.8 h 4.8 c 2.096 0 3.8 1.704 3.8 3.8 s -1.704 3.8 -3.8 3.8 h -1.32 c -0.174 0.365 -0.28 0.769 -0.28 1.2 c 0 0.353 0.073 0.688 0.193 1 H 23.9 a 6 6 0 1 0 0 -12 Z" /><path fill="#ffffff" d="M 30.833 30.08 c 0.04 0.302 0.068 0.608 0.068 0.92 c 0 0.448 -0.046 0.886 -0.127 1.311 A 3.8 3.8 0 0 1 33.7 36 c 0 2.096 -1.704 3.8 -3.8 3.8 h -4.8 c -2.096 0 -3.8 -1.704 -3.8 -3.8 s 1.704 -3.8 3.8 -3.8 h 1.32 c 0.175 -0.365 0.281 -0.769 0.281 -1.2 c 0 -0.353 -0.073 -0.688 -0.193 -1 h -1.407 a 6 6 0 1 0 0 12 h 4.8 a 6 6 0 0 0 6 -6 a 5.997 5.997 0 0 0 -5.068 -5.92 Z" /></g>
</svg>
