<svg xmlns="http://www.w3.org/2000/svg" role="presentation" aria-hidden="true" viewBox="0 0 18 18" focusable="false" xmlns:xlink="http://www.w3.org/1999/xlink" xmlns:svg="http://www.w3.org/2000/svg">
  <g>
    <defs />
    <path fill="#FFFFFF" d="M 17.875 11.439 a 3.989 3.989 0 0 0 -3.461 -3.834 A 5.026 5.026 0 0 0 9.237 2.8 a 5.156 5.156 0 0 0 -4.928 3.359 a 4.759 4.759 0 0 0 -4.184 4.579 a 4.83 4.83 0 0 0 5 4.641 c 0.148 0 0.295 -0.007 0.44 -0.019 h 8.094 a 0.789 0.789 0 0 0 0.213 -0.032 a 4.036 4.036 0 0 0 4.003 -3.889 Z" />
    <path fill="#a74528" d="M 8.371 9.669 l 2.3 -4.522 a 0.294 0.294 0 0 1 0.522 0 l 2.29 4.32 a 1.571 1.571 0 0 1 0.232 0.9 c 0 0.948 -1.248 1.716 -2.788 1.716 s -2.788 -0.768 -2.788 -1.716 a 1.179 1.179 0 0 1 0.232 -0.698 Z" />
    <path fill="#FFFFFF" d="M 8.371 9.707 c -0.189 0.381 -0.235 0.445 -0.235 0.691 a 1.181 1.181 0 0 0 0.012 0.146 v 0.056 h 0.013 c 0.14 0.733 1.032 1.325 2.189 1.475 v -0.148 c -1.1 -0.147 -1.945 -0.7 -2.05 -1.385 c 0.045 -0.687 0.879 -1.426 2.05 -1.591 v -0.087 l -0.023 0.013 l -0.1 -0.056 a 2.933 2.933 0 0 0 -1.686 0.879 l 0.016 -0.031 l 0.712 -1.4 l -0.128 -0.074 l -0.77 1.518 Z" />
    <path opacity="0.8" fill="#a74528" d="M 10.346 8.809 v 3.505 l -3.029 1.761 v -3.51 l 3.029 -1.756 Z" />
    <path opacity="0.85" fill="#a74528" d="M 10.346 8.801 l -3.029 1.76 L 4.288 8.8 l 3.029 -1.761 l 3.029 1.762 Z" />
    <path fill="#a74528" d="M 7.317 10.564 v 3.506 l -3.029 -1.761 V 8.804 l 3.029 1.76 Z" />
    <path fill="#a74528" d="M 7.317 14.16 l -3.1 -1.8 V 8.767 l 3.1 -1.8 l 3.1 1.8 v 3.589 Z m -2.956 -1.888 l 2.956 1.718 l 2.955 -1.718 v -3.42 L 7.317 7.133 L 4.361 8.851 Z" />
    <path fill="#FFFFFF" d="M 13.712 10.359 a 1.571 1.571 0 0 0 -0.232 -0.9 l -2.29 -4.32 a 0.294 0.294 0 0 0 -0.522 0 L 9.141 8.151 l 0.128 0.074 L 10.8 5.213 a 0.143 0.143 0 0 1 0.131 -0.081 a 0.144 0.144 0 0 1 0.13 0.078 l 2.29 4.32 v 0.012 a 1.214 1.214 0 0 1 0.18 0.464 a 3.292 3.292 0 0 0 -2.7 -1.276 a 3.518 3.518 0 0 0 -0.608 0.053 l 0.1 0.055 l 0.023 -0.013 v 0.087 a 3.517 3.517 0 0 1 0.489 -0.035 c 1.473 0 2.663 0.879 2.718 1.631 c -0.127 0.8 -1.257 1.42 -2.629 1.42 a 4.335 4.335 0 0 1 -0.578 -0.04 v 0.149 a 4.538 4.538 0 0 0 0.578 0.038 c 1.429 0 2.605 -0.661 2.767 -1.514 h 0.014 c 0 -0.017 0 -0.034 -0.005 -0.051 a 1.085 1.085 0 0 0 0.012 -0.151 Z" />
  </g>
</svg>