<?xml version="1.0" encoding="utf-8"?>
<!-- Generator: Adobe Illustrator 19.1.0, SVG Export Plug-In . SVG Version: 6.00 Build 0)  -->
<svg version="1.1" id="Layer_1" xmlns="http://www.w3.org/2000/svg" xmlns:xlink="http://www.w3.org/1999/xlink" x="0px" y="0px"
	 viewBox="0 0 18 18" xml:space="preserve">
<circle fill="#FFFFFF" cx="9" cy="9" r="8.329"></circle>
<path fill="#b817a2" d="M6.6 4.138l2.3-2.3a.273.273 0 0 1 .387 0l2.3 2.3a.122.122 0 0 1-.086.209h-1.415a.122.122 0 0 0-.122.123v2.873a.1.1 0 0 1-.1.1H8.321a.1.1 0 0 1-.1-.1V4.47a.122.122 0 0 0-.121-.123H6.687a.123.123 0 0 1-.087-.209zm4.986 9.724l-2.3 2.3a.273.273 0 0 1-.387 0l-2.3-2.3a.123.123 0 0 1 .087-.209H8.1a.122.122 0 0 0 .122-.123v-2.873a.1.1 0 0 1 .1-.1h1.544a.1.1 0 0 1 .1.1v2.873a.122.122 0 0 0 .122.123H11.5a.122.122 0 0 1 .086.209z"></path>
<path fill="#b817a2" d="M12.884 11.513l-2.3-2.3a.273.273 0 0 1 0-.387l2.3-2.3a.122.122 0 0 1 .209.086v1.415a.123.123 0 0 0 .122.123h2.874a.1.1 0 0 1 .1.1v1.542a.1.1 0 0 1-.1.1h-2.874a.122.122 0 0 0-.122.122v1.414a.123.123 0 0 1-.209.085zM5.116 6.527l2.3 2.3a.273.273 0 0 1 0 .387l-2.3 2.3a.123.123 0 0 1-.209-.087v-1.415a.122.122 0 0 0-.122-.122H1.911a.1.1 0 0 1-.1-.1V8.247a.1.1 0 0 1 .1-.1h2.874a.123.123 0 0 0 .122-.123V6.613a.122.122 0 0 1 .209-.086z"></path>
</svg>
