<?xml version="1.0" encoding="utf-8"?>
<!-- Generator: Adobe Illustrator 17.0.1, SVG Export Plug-In . SVG Version: 6.00 Build 0)  -->
<!DOCTYPE svg PUBLIC "-//W3C//DTD SVG 1.1//EN" "http://www.w3.org/Graphics/SVG/1.1/DTD/svg11.dtd">
<svg xmlns="http://www.w3.org/2000/svg" role="presentation" aria-hidden="true" viewBox="0 0 50 50" focusable="false" xmlns:xlink="http://www.w3.org/1999/xlink" xmlns:svg="http://www.w3.org/2000/svg">
  <g>
    <path fill="#FFFFFF" d="M 2.293 32 L 23 17.293 L 43.707 32 L 23 47.707 L 2.293 32 Z" />
    <path fill="#FFFFFF" d="M 7.362 32.079 L 23 20.973 l 15.638 11.106 L 23 43.941 Z" />
    <path fill="#a74528" d="M 7.362 32.079 L 23 20.973 l 15.638 11.106 L 23 43.941 Z" />
    <circle fill="#a74528" cx="40" cy="32" r="6.9" />
    <path fill="#FFFFFF" d="M 40 28.1 c 2.15 0 3.9 1.75 3.9 3.9 s -1.75 3.9 -3.9 3.9 s -3.9 -1.75 -3.9 -3.9 s 1.75 -3.9 3.9 -3.9 m 0 -3 a 6.9 6.9 0 1 0 0 13.8 a 6.9 6.9 0 1 0 0 -13.8 Z" />
    <path fill="#FFFFFF" d="M 48.773 9.551 C 48.773 4.388 44.845 0.1 40 0.1 s -8.773 4.113 -8.773 9.451 S 40 29.5 40 33 c 0 -3.5 8.773 -18.286 8.773 -23.449 Z" />
    <circle fill="#a74528" cx="40" cy="9" r="3.9" />
    <circle fill="#FFFFFF" cx="23" cy="20" r="4.9" />
    <circle fill="#FFFFFF" cx="6" cy="32" r="4.9" />
    <circle fill="#FFFFFF" cx="23" cy="45" r="4.9" />
  </g>
</svg>