<?xml version="1.0" encoding="UTF-8" standalone="no"?>
<!DOCTYPE svg PUBLIC "-//W3C//DTD SVG 1.1//EN" "http://www.w3.org/Graphics/SVG/1.1/DTD/svg11.dtd">
<!-- Generated by Microsoft Visio, SVG Export Backup.svg Layer_1 -->
<svg xmlns="http://www.w3.org/2000/svg" xmlns:xlink="http://www.w3.org/1999/xlink" xmlns:ev="http://www.w3.org/2001/xml-events"
		xmlns:v="http://schemas.microsoft.com/visio/2003/SVGExtensions/" width="0.520833in" height="0.520833in"
		viewBox="0 0 70 70" xml:space="preserve" color-interpolation-filters="sRGB" class="st2">
	<v:documentProperties v:langID="1033" v:viewMarkup="false"/>
<path xmlns="http://www.w3.org/2000/svg" fill="#FFFFFF" d="M 35.137 50.391 L 28.19 28.694 l -4.371 7.48 H 3.106 c -1.423 0 -2.58 -1.157 -2.58 -2.581 c 0 -1.423 1.157 -2.581 2.58 -2.581 h 17.753 l 8.718 -14.923 l 6.327 19.762 l 2.488 -5.645 h 22.503 c 1.423 0 2.58 1.157 2.58 2.581 c 0 1.423 -1.157 2.581 -2.58 2.581 h -19.14 L 35.137 50.391 Z" />
<path xmlns="http://www.w3.org/2000/svg" fill="#FFFFFF" d="M 63.133 24.278 C 59.581 9.984 46.831 0 32.129 0 C 17.246 0 4.113 10.56 0.903 25.113 l -0.278 1.254 h 6.359 l 0.198 -0.774 c 2.931 -11.423 13.19 -19.399 24.948 -19.399 c 11.319 0 21.46 7.657 24.657 18.625 l 0.218 0.742 h 6.448 L 63.133 24.278 Z" />
<path xmlns="http://www.w3.org/2000/svg" fill="#FFFFFF" d="M 56.569 40.012 l -0.246 0.681 c -3.69 10.238 -13.415 17.113 -24.194 17.113 c -10.573 0 -19.956 -6.411 -23.895 -16.335 l -0.258 -0.653 H 1.375 l 0.456 1.363 C 6.226 55.23 18.399 64 32.129 64 c 14.141 0 26.427 -9.105 30.577 -22.653 l 0.407 -1.335 H 56.569 Z" />
</svg>
